<svg xmlns="http://www.w3.org/2000/svg" id="nlwhE58XAS" viewBox="0 0 389.89473684210526 100.57586692469512" height="100.57586692469512" width="389.89473684210526" 
style="width: 389.895px; height: 100.576px; position: absolute; top: 0; left: 0; transform: translate(0, 0); z-index: 0; cursor: pointer; overflow: visible;">

<defs id="SvgjsDefs1986">
<linearGradient id="SvgjsLinearGradient1991">
<stop id="SvgjsStop1992" stop-color="#1CA2FF" offset="0"><!--28, 162, 255-->

</stop>

<stop id="SvgjsStop1993" stop-color="#0e8CF2" offset="0.5">
</stop>

<stop id="SvgjsStop1994" stop-color="#0068DC" offset="1"><!--0, 104, 220-->
</stop>
</linearGradient>
</defs>

<g id="SvgjsG1987" featurekey="v37d4h-0" transform="matrix(0.32477172487886263,0,0,0.32477172487886263,17.336871917938616,11.718321015589003)" fill="url(#SvgjsLinearGradient1991)">

<g xmlns="http://www.w3.org/2000/svg">

<path d="M64.3,132.1l78.8,136.5c1.2,2.2-0.3,5-2.9,5H83.6c-3.2,0-6.1-1.7-7.8-4.5L9.4,154c-1.6-2.7-1.6-6.2,0-8.9L26.8,115h0.1   l21.5-37.2h-0.1l15.9-27.5c13.1-22.6,45.5-24,59.8-2.2c0.3,0.5,0.6,0.9,0.9,1.4l85.5,148c0.1,0.1,0.2,0.2,0.2,0.3   c10.2,17.4,35.3,17.1,45.4-0.3l7.7-13.3c-11.6-0.6-22.1-6.9-27.9-17.1L157,30.5c-1.2-2.2,0.3-5,2.9-5h56.5c3.2,0,6.1,1.7,7.8,4.5   l66.4,115c1.6,2.7,1.6,6.2,0,8.9l-7.7,13.3L243.8,235l-8.4,14.5c-13.1,22.6-45.7,23.6-59.5,1.4c-0.2-0.4-0.6-0.9-0.8-1.3l-85.5-148   c-0.1-0.1-0.2-0.2-0.2-0.3c-10.2-17.3-35.3-17-45.3,0.3L36.3,115C48,115.6,58.5,122,64.3,132.1z">
</path>
</g>
</g>

<g id="SvgjsG1988" featurekey="UxBHKT-0" transform="matrix(3.8003939658492314,0,0,3.8003939658492314,128.7316613615257,13.442180312697126)" fill="#202020">

<path d="M9.72 18.9 q-0.38 0.52 -1.31 0.93 t-2.03 0.41 q-1.7 0 -2.95 -0.76 t-1.91 -2.07 t-0.66 -2.91 t0.66 -2.91 t1.91 -2.07 t2.95 -0.76 q1.14 0 2.01 0.39 t1.33 0.99 l0 -1.14 l2.96 0 l0 11 l-2.96 0 l0 -1.1 z M9.02 12.25 q-0.82 -0.87 -2.2 -0.87 q-1.4 0 -2.21 0.87 t-0.81 2.25 q0 1.34 0.83 2.22 t2.19 0.88 q1.4 0 2.21 -0.83 t0.81 -2.27 q0 -1.38 -0.82 -2.25 z M18.44 7.37 q-0.48 0.47 -1.16 0.47 q-0.7 0 -1.19 -0.47 t-0.49 -1.15 q0 -0.66 0.49 -1.13 t1.19 -0.47 q0.68 0 1.16 0.47 t0.48 1.13 q0 0.68 -0.48 1.15 z M15.78 9.02 l3 0 l0 10.98 l-3 0 l0 -10.98 z M25.44 16.08 q0 0.7 0.24 1.17 t1.12 0.47 q0.4 0 0.76 -0.04 l0 2.52 q-0.72 0.08 -1.34 0.08 q-1.28 0 -2.07 -0.21 t-1.23 -0.81 t-0.44 -1.72 l0 -6.1 l-1.34 0 l0 -2.62 l1.34 0 l0 -2.94 l2.96 0 l0 2.94 l2.2 0 l0 2.62 l-2.2 0 l0 4.64 z M32.75 19.74 q-1.37 -0.54 -2.35 -1.83 t-0.98 -3.37 t0.99 -3.36 t2.37 -1.82 t2.62 -0.54 q1.44 0 2.74 0.64 t2.13 1.88 t0.87 2.94 q0 0.52 -0.02 0.9 t-0.04 0.48 l-8.68 0 q0.24 1.16 1.2 1.58 t1.8 0.42 q1.08 0 1.72 -0.39 t1.1 -0.89 l2.32 1.34 q-1.88 2.56 -5.14 2.56 q-1.28 0 -2.65 -0.54 z M33.36 12.05 q-0.78 0.61 -0.88 1.49 l5.5 0 q-0.06 -0.52 -0.4 -1 t-0.91 -0.79 t-1.29 -0.31 q-1.24 0 -2.02 0.61 z M47.26 16.08 q0 0.7 0.24 1.17 t1.12 0.47 q0.4 0 0.76 -0.04 l0 2.52 q-0.72 0.08 -1.34 0.08 q-1.28 0 -2.07 -0.21 t-1.23 -0.81 t-0.44 -1.72 l0 -6.1 l-1.34 0 l0 -2.62 l1.34 0 l0 -2.94 l2.96 0 l0 2.94 l2.2 0 l0 2.62 l-2.2 0 l0 4.64 z M54.56 7.37 q-0.48 0.47 -1.16 0.47 q-0.7 0 -1.19 -0.47 t-0.49 -1.15 q0 -0.66 0.49 -1.13 t1.19 -0.47 q0.68 0 1.16 0.47 t0.48 1.13 q0 0.68 -0.48 1.15 z M51.9 9.02 l3 0 l0 10.98 l-3 0 l0 -10.98 z M60.34 19.51 q-1.38 -0.77 -2.19 -2.09 t-0.81 -2.88 t0.81 -2.87 t2.18 -2.08 t2.99 -0.77 q1.74 0 3.15 0.83 t2.25 2.37 l-2.7 1.06 q-0.48 -0.82 -1.18 -1.23 t-1.52 -0.41 q-1.3 0 -2.15 0.88 t-0.85 2.22 t0.86 2.22 t2.16 0.88 q1.8 0 2.78 -1.6 l2.54 1 q-1.58 3.24 -5.32 3.24 q-1.62 0 -3 -0.77 z">
</path>
</g>
</svg>
